<svg width="19" height="14" viewBox="0 0 19 14" fill="none" xmlns="http://www.w3.org/2000/svg">
<path id="Vector" fill-rule="evenodd" clip-rule="evenodd" d="M1 0C0.734784 0 0.48043 0.105357 0.292893 0.292893C0.105357 0.48043 0 0.734784 0 1C0 1.26522 0.105357 1.51957 0.292893 1.70711C0.48043 1.89464 0.734784 2 1 2H18C18.2652 2 18.5196 1.89464 18.7071 1.70711C18.8946 1.51957 19 1.26522 19 1C19 0.734784 18.8946 0.48043 18.7071 0.292893C18.5196 0.105357 18.2652 0 18 0H1ZM0 7C0 6.73478 0.105357 6.48043 0.292893 6.29289C0.48043 6.10536 0.734784 6 1 6H18C18.2652 6 18.5196 6.10536 18.7071 6.29289C18.8946 6.48043 19 6.73478 19 7C19 7.26522 18.8946 7.51957 18.7071 7.70711C18.5196 7.89464 18.2652 8 18 8H1C0.734784 8 0.48043 7.89464 0.292893 7.70711C0.105357 7.51957 0 7.26522 0 7ZM0 13.001C0 12.7358 0.105357 12.4814 0.292893 12.2939C0.48043 12.1064 0.734784 12.001 1 12.001H18C18.2652 12.001 18.5196 12.1064 18.7071 12.2939C18.8946 12.4814 19 12.7358 19 13.001C19 13.2662 18.8946 13.5206 18.7071 13.7081C18.5196 13.8956 18.2652 14.001 18 14.001H1C0.734784 14.001 0.48043 13.8956 0.292893 13.7081C0.105357 13.5206 0 13.2662 0 13.001Z" fill="#12130F"/>
</svg>
