<svg width="22" height="23" viewBox="0 0 22 23" fill="none" xmlns="http://www.w3.org/2000/svg">
<g id="jam:thunder">
<path id="Vector" d="M13.7472 8.72071H11.649V5.08337C11.649 4.84026 11.5524 4.6071 11.3805 4.43519C11.2086 4.26328 10.9754 4.16671 10.7323 4.16671H8.25C8.00688 4.16671 7.77373 4.26328 7.60182 4.43519C7.42991 4.6071 7.33333 4.84026 7.33333 5.08337V10.5128C7.3332 10.7506 7.42548 10.9792 7.59071 11.1502C7.75593 11.3212 7.98116 11.4214 8.21883 11.4295L9.99442 11.4854V18.2724C9.99477 18.388 10.0349 18.5 10.1082 18.5895C10.1814 18.679 10.2832 18.7406 10.3965 18.7638C10.5098 18.7871 10.6277 18.7706 10.7302 18.7171C10.8328 18.6637 10.9138 18.5765 10.9597 18.4704L14.5897 9.99854C14.6495 9.85905 14.6737 9.70689 14.6602 9.55573C14.6467 9.40456 14.5958 9.25912 14.5122 9.13245C14.4286 9.00578 14.3149 8.90185 14.1812 8.82999C14.0475 8.75812 13.899 8.72057 13.7472 8.72071ZM13.4823 5.08337V6.88737H13.7472C14.2022 6.88749 14.65 7.00048 15.0506 7.21621C15.4511 7.43195 15.7919 7.74369 16.0423 8.1235C16.2928 8.50331 16.4451 8.93933 16.4856 9.39247C16.5261 9.84562 16.4536 10.3017 16.2745 10.72L12.6445 19.1927C12.4322 19.6868 12.056 20.0926 11.5793 20.3415C11.1026 20.5905 10.5546 20.6674 10.0278 20.5592C9.50102 20.4511 9.02765 20.1645 8.68758 19.7479C8.3475 19.3313 8.16155 18.8102 8.16108 18.2724V13.2619C7.44742 13.2388 6.77071 12.939 6.27409 12.426C5.77746 11.9129 5.49986 11.2268 5.5 10.5128V5.08337C5.5 4.35403 5.78973 3.65456 6.30546 3.13883C6.82118 2.62311 7.52065 2.33337 8.25 2.33337H10.7323C11.4617 2.33337 12.1612 2.62311 12.6769 3.13883C13.1926 3.65456 13.4823 4.35403 13.4823 5.08337Z" fill="white"/>
</g>
</svg>
