<svg width="20" height="21" viewBox="0 0 20 21" fill="none" xmlns="http://www.w3.org/2000/svg">
<path id="Combined shape 16072" fill-rule="evenodd" clip-rule="evenodd" d="M9.99996 0.500244C4.48608 0.500244 0 4.98517 0 10.5002C0 16.0142 4.48608 20.4997 9.99996 20.4997C15.5138 20.4997 20 16.0142 20 10.5002C20 4.98517 15.5138 0.500244 9.99996 0.500244ZM15.575 7.16528L9.42112 14.0884C9.2696 14.2583 9.05846 14.3459 8.84571 14.3459C8.67691 14.3459 8.50731 14.2905 8.3654 14.1782L4.51916 11.1008C4.18761 10.8357 4.13384 10.3513 4.39921 10.019C4.66426 9.68787 5.1488 9.63357 5.48035 9.89915L8.7561 12.5196L14.4249 6.1427C14.7066 5.82442 15.1934 5.79593 15.5107 6.07873C15.8284 6.36099 15.8573 6.847 15.575 7.16528Z" fill="#009D5A"/>
</svg>
