<svg width="26" height="27" viewBox="0 0 26 27" fill="none" xmlns="http://www.w3.org/2000/svg">
<g id="ant-design:instagram-filled">
<path id="Vector" d="M13 10.1154C11.1363 10.1154 9.61543 11.6363 9.61543 13.5C9.61543 15.3636 11.1363 16.8845 13 16.8845C14.8637 16.8845 16.3846 15.3636 16.3846 13.5C16.3846 11.6363 14.8637 10.1154 13 10.1154ZM23.1512 13.5C23.1512 12.0984 23.1639 10.7095 23.0852 9.31052C23.0064 7.68552 22.6357 6.24333 21.4475 5.05505C20.2566 3.86423 18.817 3.49607 17.192 3.41736C15.7904 3.33865 14.4016 3.35134 13.0025 3.35134C11.601 3.35134 10.2121 3.33865 8.81308 3.41736C7.18808 3.49607 5.7459 3.86677 4.55762 5.05505C3.3668 6.24587 2.99863 7.68552 2.91992 9.31052C2.84121 10.7121 2.8539 12.1009 2.8539 13.5C2.8539 14.899 2.84121 16.2904 2.91992 17.6894C2.99863 19.3144 3.36933 20.7566 4.55762 21.9449C5.74844 23.1357 7.18808 23.5039 8.81308 23.5826C10.2146 23.6613 11.6035 23.6486 13.0025 23.6486C14.4041 23.6486 15.793 23.6613 17.192 23.5826C18.817 23.5039 20.2592 23.1332 21.4475 21.9449C22.6383 20.7541 23.0064 19.3144 23.0852 17.6894C23.1664 16.2904 23.1512 14.9015 23.1512 13.5ZM13 18.7076C10.1182 18.7076 7.79238 16.3818 7.79238 13.5C7.79238 10.6181 10.1182 8.29236 13 8.29236C15.8818 8.29236 18.2076 10.6181 18.2076 13.5C18.2076 16.3818 15.8818 18.7076 13 18.7076ZM18.4209 9.29529C17.748 9.29529 17.2047 8.75193 17.2047 8.07907C17.2047 7.40622 17.748 6.86286 18.4209 6.86286C19.0937 6.86286 19.6371 7.40622 19.6371 8.07907C19.6373 8.23885 19.606 8.39709 19.5449 8.54474C19.4839 8.69238 19.3943 8.82654 19.2813 8.93951C19.1684 9.05249 19.0342 9.14207 18.8866 9.20312C18.7389 9.26417 18.5807 9.29549 18.4209 9.29529Z" fill="#4A4D59"/>
</g>
</svg>
