<svg width="22" height="23" viewBox="0 0 22 23" fill="none" xmlns="http://www.w3.org/2000/svg">
<g id="carbon:connect">
<path id="Vector" d="M15.8125 11.5069C14.7767 11.5079 13.7689 11.843 12.9387 12.4625L10.0375 9.56129C10.6643 8.73722 11.0025 7.72978 11 6.69441C11.0027 5.61016 10.6392 4.55676 9.96837 3.70493C9.29755 2.8531 8.35874 2.25276 7.30407 2.0012C6.2494 1.74964 5.14068 1.8616 4.1576 2.31894C3.17451 2.77627 2.37467 3.55219 1.8877 4.52094C1.40073 5.48968 1.25516 6.59449 1.47459 7.65631C1.69401 8.71813 2.26558 9.67474 3.09665 10.3711C3.92772 11.0675 4.9696 11.4628 6.05343 11.493C7.13727 11.5232 8.19955 11.1865 9.06812 10.5375L11.9625 13.4388C11.3137 14.3071 10.977 15.3691 11.007 16.4526C11.037 17.5362 11.4319 18.5778 12.1278 19.4089C12.8237 20.24 13.7798 20.8119 14.8412 21.0318C15.9026 21.2517 17.0072 21.1069 17.976 20.6208C18.9448 20.1346 19.7212 19.3356 20.1793 18.3532C20.6374 17.3708 20.7504 16.2625 20.5 15.2079C20.2497 14.1532 19.6506 13.214 18.7998 12.5423C17.9491 11.8706 16.8965 11.5058 15.8125 11.5069ZM2.74999 6.69441C2.74999 6.01454 2.9516 5.34993 3.32931 4.78464C3.70703 4.21934 4.2439 3.77875 4.87202 3.51857C5.50014 3.2584 6.1913 3.19032 6.85811 3.32296C7.52492 3.4556 8.13743 3.78299 8.61817 4.26373C9.09891 4.74447 9.4263 5.35698 9.55894 6.02379C9.69158 6.6906 9.6235 7.38176 9.36333 8.00988C9.10315 8.63801 8.66256 9.17487 8.09726 9.55259C7.53197 9.9303 6.86736 10.1319 6.18749 10.1319C5.27581 10.1319 4.40147 9.76975 3.75681 9.12509C3.11215 8.48043 2.74999 7.60609 2.74999 6.69441Z" fill="white"/>
</g>
</svg>
