<svg width="22" height="23" viewBox="0 0 22 23" fill="none" xmlns="http://www.w3.org/2000/svg">
<g id="ph:ear">
<path id="Vector" d="M18.5625 9.4375C18.5625 9.61984 18.4901 9.7947 18.3611 9.92364C18.2322 10.0526 18.0573 10.125 17.875 10.125C17.6927 10.125 17.5178 10.0526 17.3889 9.92364C17.2599 9.7947 17.1875 9.61984 17.1875 9.4375C17.1875 7.79647 16.5356 6.22266 15.3752 5.06228C14.2148 3.9019 12.641 3.25 11 3.25C9.35897 3.25 7.78516 3.9019 6.62478 5.06228C5.4644 6.22266 4.8125 7.79647 4.8125 9.4375C4.8125 11.732 5.54555 12.4384 6.32242 13.1878C7.06492 13.9062 7.90625 14.7149 7.90625 16.6562C7.90625 17.4768 8.2322 18.2637 8.81239 18.8439C9.39258 19.4241 10.1795 19.75 11 19.75C11.88 19.75 12.5855 19.3925 13.2198 18.6251C13.2766 18.5535 13.3471 18.494 13.4272 18.4499C13.5072 18.4059 13.5953 18.3783 13.6862 18.3687C13.777 18.3592 13.8689 18.3678 13.9564 18.3941C14.0439 18.4205 14.1253 18.464 14.1958 18.5221C14.2663 18.5803 14.3245 18.6519 14.367 18.7328C14.4094 18.8137 14.4354 18.9023 14.4432 18.9933C14.4511 19.0843 14.4407 19.176 14.4128 19.263C14.3848 19.35 14.3397 19.4305 14.2802 19.4999C13.3899 20.5784 12.2891 21.125 11 21.125C9.81523 21.1236 8.67938 20.6524 7.84162 19.8146C7.00387 18.9769 6.53261 17.841 6.53125 16.6562C6.53125 15.2993 6.04312 14.8284 5.36766 14.1778C4.50828 13.3477 3.4375 12.3164 3.4375 9.4375C3.4375 7.4318 4.23426 5.50825 5.65251 4.09001C7.07075 2.67176 8.9943 1.875 11 1.875C13.0057 1.875 14.9293 2.67176 16.3475 4.09001C17.7657 5.50825 18.5625 7.4318 18.5625 9.4375ZM15.2857 14.3428C15.2075 14.2975 15.1212 14.268 15.0316 14.2561C14.942 14.2442 14.8509 14.25 14.7636 14.2733C14.6763 14.2966 14.5944 14.3369 14.5227 14.3919C14.4509 14.4469 14.3907 14.5155 14.3455 14.5938C14.2699 14.7249 14.1531 14.8274 14.0132 14.8854C13.8734 14.9433 13.7183 14.9535 13.5721 14.9143C13.4258 14.8752 13.2966 14.7888 13.2045 14.6687C13.1124 14.5486 13.0624 14.4014 13.0625 14.25C13.0625 13.4482 13.4767 12.8956 13.9562 12.2563C14.5037 11.5258 15.125 10.6982 15.125 9.4375C15.125 8.34348 14.6904 7.29427 13.9168 6.52068C13.1432 5.7471 12.094 5.3125 11 5.3125C9.90598 5.3125 8.85677 5.7471 8.08318 6.52068C7.3096 7.29427 6.875 8.34348 6.875 9.4375C6.875 9.61984 6.94743 9.7947 7.07636 9.92364C7.2053 10.0526 7.38016 10.125 7.5625 10.125C7.74484 10.125 7.9197 10.0526 8.04864 9.92364C8.17757 9.7947 8.25 9.61984 8.25 9.4375C8.25 8.70815 8.53973 8.00868 9.05546 7.49296C9.57118 6.97723 10.2707 6.6875 11 6.6875C11.7293 6.6875 12.4288 6.97723 12.9445 7.49296C13.4603 8.00868 13.75 8.70815 13.75 9.4375C13.75 10.2393 13.3358 10.7919 12.8563 11.4312C12.3088 12.1617 11.6875 12.9893 11.6875 14.25C11.6877 14.7039 11.8375 15.1451 12.1139 15.5051C12.3903 15.8652 12.7777 16.124 13.2161 16.2415C13.6546 16.359 14.1195 16.3286 14.5389 16.155C14.9583 15.9814 15.3087 15.6743 15.5358 15.2812C15.6269 15.1236 15.6517 14.9363 15.6048 14.7603C15.5579 14.5844 15.4432 14.4342 15.2857 14.3428Z" fill="white"/>
</g>
</svg>
