<svg width="20" height="21" viewBox="0 0 20 21" fill="none" xmlns="http://www.w3.org/2000/svg">
<path id="Vector" d="M18.5195 0.5H1.47656C0.660156 0.5 0 1.14453 0 1.94141V19.0547C0 19.8516 0.660156 20.5 1.47656 20.5H18.5195C19.3359 20.5 20 19.8516 20 19.0586V1.94141C20 1.14453 19.3359 0.5 18.5195 0.5ZM5.93359 17.543H2.96484V7.99609H5.93359V17.543ZM4.44922 6.69531C3.49609 6.69531 2.72656 5.92578 2.72656 4.97656C2.72656 4.02734 3.49609 3.25781 4.44922 3.25781C5.39844 3.25781 6.16797 4.02734 6.16797 4.97656C6.16797 5.92187 5.39844 6.69531 4.44922 6.69531ZM17.043 17.543H14.0781V12.9023C14.0781 11.7969 14.0586 10.3711 12.5352 10.3711C10.9922 10.3711 10.7578 11.5781 10.7578 12.8242V17.543H7.79688V7.99609H10.6406V9.30078H10.6797C11.0742 8.55078 12.043 7.75781 13.4844 7.75781C16.4883 7.75781 17.043 9.73438 17.043 12.3047V17.543Z" fill="#4A4D59"/>
</svg>
